<svg xmlns="http://www.w3.org/2000/svg" xmlns:xlink="http://www.w3.org/1999/xlink" version="1.1" x="0px" y="0px" fill="#f87171" viewBox="0 0 90 90" style="enable-background:new 0 0 90 90;" xml:space="preserve"><path d="M54.0077591,11.9515133c-5.6804199-0.9836426-11.3607788-1.9672852-17.0411987-2.9509277  c-1.7022095-0.2947388-3.3705444,1.5709229-2.7481689,3.1951294c2.0631104,5.3841553,4.1262207,10.7683716,6.1893311,16.1525269  c1.0278931,2.6825562,5.6498413,0.7756958,4.6193237-1.9136353c-1.1550903-3.0145264-2.3101807-6.0290527-3.465332-9.0435791  c2.6361694,1.4812622,5.0064087,3.4961548,6.6524658,5.9182129c5.133728,7.5539551,1.5014648,16.6040058-1.5828247,24.1983662  c-4.3966675,10.8258667-15.1740112,30.4396973,3.3257446,33.4682007c2.9767456,0.4873047,3.6466064-2.4356689,0.6102295-2.9327393  c-9.4584351-1.5484009-6.3065186-11.1640625-3.9127197-17.6115723c2.9266357-7.8826904,7.2960205-15.5510864,8.7636719-23.90271  c1.6669922-9.4857197-3.8510742-17.5935688-11.871521-21.7602558c3.1946411,0.5532227,6.3893433,1.1063843,9.5839844,1.6596069  C56.0386429,16.9316769,57.1894608,12.5024776,54.0077591,11.9515133z"/></svg>