<svg xmlns="http://www.w3.org/2000/svg" xmlns:xlink="http://www.w3.org/1999/xlink" version="1.1" x="0px" y="0px" fill="#c2410c" viewBox="0 0 64 64" style="enable-background:new 0 0 64 64;" xml:space="preserve"><path d="M55.7586,24.5403c-0.209-0.6337-0.497-1.3964-0.6993-2.1811c-0.0687-0.2663-0.0066-0.6428,0.142-0.8755  c0.8654-1.3555,1.3279-3.0789,1.0247-4.6754c-0.2383-1.2541-0.9285-2.4223-1.9304-3.2133  c-0.7166-0.5657-2.7602-1.8698-4.5865-1.7034c0.118-6.2257-5.5381-8.2404-9.1827-3.1095c-0.623-1.2829-1.9141-1.8446-3.3236-2.017  c-0.6737-0.0825-1.6364,0.1152-2.1836-0.3051c-0.4971-0.3817-1.06-2.1199-2.0195-3.0076c-1.0278-0.9509-2.4824-1.5493-3.9131-1.3883  c-1.3553,0.1525-2.4636,1.1355-3.3539,2.1686c-0.7286,0.8455-1.3798,1.7576-1.9428,2.7213  c-2.8672-1.2205-6.7556,0.8224-6.7695,3.2887c-2.1997-1.2456-6.1334-2.2827-7.374,0.6393c-0.4214,0.92-0.5515,2.2427,0.1413,4.0717  c-2.4327-0.5515-5.7949,0.0777-7.0657,2.482c-0.8877,1.6795-0.6565,3.7855,0.2806,5.39c0.6647,1.1379,1.6521,2.0559,2.7587,2.7576  c0.2756,0.1748,1.6986,0.9401,2.5726,1.0731c-1.4518,1.8367-1.7259,3.7213-0.3124,5.5531c2.5554,2.9127,6.6956,1.112,9.8033,0.1686  c-1.0991,1.9216-1.6212,4.2302,0.4296,5.762c1.4524,1.0849,3.342,1.0232,5.0637,1.0903c-0.5612,1.9387,0.6584,4.5192,1.2588,5.3154  c1.0898,1.4451,4.5814,2.7753,7.0972,0.8932c1.9628-1.4683,2.5378-3.7781,2.9712-6.1544c0.4235-2.3217,0.3632-4.6839-0.4711-6.8448  c-0.6374-1.635-2.6326-0.6097-2.4214,1.7227c0.1215,1.3419,0.1003,2.7014-0.1044,4.0366c-0.196,1.2796-1.6353,6.3513-3.7771,4.6553  c-1.1327-0.8969-1.1645-2.4057-1.063-3.6786c0.1045-1.3112,1.5665-2.1817,1.2324-3.4888c-0.1545-1.0381-1.1122-1.6964-2.1042-0.9733  c-1.1777,0.8585-3.4549,1.7183-4.9125,1.1419c-0.5004-0.1979-0.7946-0.7483-0.6893-1.2759c0.3162-1.5857,2.838-2.5833,3.8552-2.9456  c0.8223-0.2928-0.0474-1.1895-1.1712-1.4288c-0.6644-0.1415-2.0278-0.1115-2.2293,0.1683c0.4213-0.5848,0.7314-1.0152,1.0309-1.431  c1.9778-0.0073,3.8904-0.1904,5.6765-1.0674c1.646,1.2773,3.5805,2.0222,5.6885,1.8545c1.6892-0.1343,2.6059-0.983,3.8989-1.9748  c1.6969-1.4515,2.494-3.5917,2.5228-5.7972c-0.0074-1.8552,2.7177-1.8166,3.9159-1.0903c2.0428,0.9337,0.3776,2.528,0.0127,4.1851  c-3.959-0.5308-5.7388,2.2201-7.1241,5.4569c-0.6546,1.4716-0.4238,2.9319,0.491,4.2758c0.1709,0.3222,0.4688,0.7173,0.3132,0.9944  c-2.9489,2.5066-2.4401,8.7879,0.9576,10.5901c2.924,1.6061,6.2155,3.7405,9.425,1.4086c0.5166-0.3754,1.2638-1.0065,1.9507-0.7838  c0.6404,0.2077,1.085,0.7047,1.7559,0.8796c0.6458,0.1683,1.3306,0.165,1.9918,0.1201c2.9552-0.2007,5.3162-1.3784,6.5507-4.1849  c0.9352-2.1261,1.0351-4.7268-0.0743-6.8091C63.611,32.7186,61.9908,25.2823,55.7586,24.5403z M15.5517,29.9458  c-0.9482,0.4741-4.2363,1.6292-4.8876,0.033c-0.5945-1.4572,1.9827-2.7138,2.7815-3.4692c2.1783-2.0601-0.5543-3.4362-2.5905-3.2389  c-1.8499,0.0627-3.5751-0.4994-4.8611-1.968c-0.362-0.4134-0.5823-1.0554-0.5748-1.6012c0.0095-0.6909,0.4536-1.0754,1.0886-1.1937  c1.4238-0.2651,3.0342-0.1877,4.3129,0.5507c1.0374,0.599,2.4296,2.0803,3.6915,1.1989c1.2233-0.8545,0.4547-2.4325-0.1246-3.4178  c-0.3823-0.6503-3.1231-4.1846-1.855-4.6872c1.6739-0.6621,3.7879,0.5074,4.3528,2.1567c0.0732,0.2138,0.1629,2.2242,1.614,3.1321  c-2.4487,2.3085-3.4661,7.4285,0.2305,9.9734C17.824,28.3939,16.8264,29.3084,15.5517,29.9458z M36.5147,17.0785  c-1.1006,0.9582-1.1872,1.8833-0.7076,3.0605c1.2078,3.1776-1.128,6.6443-4.675,6.0818c-1.2188-0.1374-2.2181-0.4644-3.175-1.3107  c-1.1682-1.0331-2.7034,0.1573-4.0016,0.2607c-2.1309,0.4482-5.3453-1.0675-4.2538-3.5593  c0.6732-1.5367,2.2663-2.7107,2.1647-4.4556c-0.0758-0.7522-0.3673-1.4092-0.9458-1.8858  c-0.9584-0.8922-1.1056-2.0145-0.9529-3.2393c0.3155-3.0993,3.2909-2.9474,5.1236-2.3392c0.3195,0.1061,0.6681-0.0083,0.8622-0.2833  c2.42-3.4297,4.073-6.0482,6.821-0.6362c0.6511,1.4449,1.081,1.6785,2.7539,1.408C39.4943,9.5388,38.6202,15.2453,36.5147,17.0785z   M40.2804,17.9928c0.2043-0.7155,0.3144-1.0319,0.7048-1.5533c0.9709-1.2857,1.2107-2.668,0.777-4.241  c-0.3376-1.2241-0.0012-1.7962,1.1444-2.4352c3.8277-2.6526,4.1998,0.7256,3.128,3.5831c-0.8452,2.6187,2.4363,2.171,4.1133,2.0811  c1.1791-0.0632,2.1174,0.7097,2.3748,1.7424c0.0793,0.3181,0.0939,0.6607,0.0312,1.0112c-0.0862,0.4813-0.4135,1.9196-1.1711,1.4892  c-1.3026-0.7401-2.5907-0.6938-3.8715,0.0541C45.4453,17.901,43.158,17.0558,40.2804,17.9928z M56.8668,34.6455  c-0.248,0.1912-0.5229,0.3994-0.6663,0.6642c-0.3336,0.6158-0.4973,1.2282,0.0164,1.8995c1.5033,1.769,0.78,4.296-0.2655,6.1241  c-1.2261,1.9036-3.8928,1.6754-5.1572,0.0595c-0.7067-0.9976-1.6707-0.9035-2.4792-0.2312  c-1.4987,1.1555-3.5007,2.2115-5.4253,1.6218c-0.8516-0.261-1.6188-0.7367-2.3705-1.2144  c-0.6602-0.4196-1.3537-0.8264-1.6263-1.6022c-0.1458-0.4146-0.2127-0.8674-0.2205-1.3358  c-0.0218-1.3098,0.4189-2.7414,0.8938-3.7983c0.4296-0.9562,1.2275-1.8363,0.7469-2.9454c-0.204-0.4709-0.5073-0.9061-0.6096-1.4091  c-0.1115-0.5487,0.0305-1.1202,0.2521-1.6345c0.3374-0.7832,0.8704-1.4919,1.5738-1.9741c0.8478-0.5811,1.6396-0.5306,2.5987-0.6425  c0.7701-0.0898,1.0333-0.4968,1.3814-1.1284c1.0003-1.8154,1.8999-5.0995,4.5435-4.6547c1.6584,0.2043,2.2954,1.7045,2.2437,3.2171  c-0.1099,2.4139,2.9664,1.5026,4.6378,2.567C58.9401,29.5609,58.9939,33.011,56.8668,34.6455z M29.02,47.813  c-1.9922,0.7769-3.4643,1.7804-5.3764,3.0551c-1.0106,0.7914-2.1616,1.5519-2.9098,2.1061  c-1.1916-0.9976-2.047-1.7553-2.4911-2.1447c-0.8989-0.788-3.8323-3.3217-4.6932-4.1528c-0.9011-0.8699-0.9352-0.8314,0.1271-2.7233  c0.9522-1.6956,1.4644-3.479,1.8889-5.3408c0.2195-0.9624,0.3766-2.5781,0.2494-3.5748c-0.1247-0.9769-1.4582-1.2568-2.4663,1.5911  c-0.4226,1.194-1.3868,3.0694-1.9606,4.1661c-1.1453,2.1887-2.1053,3.4829-3.6372,5.4263c-0.8382,1.0634-1.7483,2.088-2.3641,3.2939  c-2.1686,4.2466,2.0124,9.3582,5.4146,11.5447c3.2065,2.0607,6.6273,0.2501,9.1807-2.0168  c3.2797-2.9116,6.2111-5.9857,9.5643-8.8123C31.0722,48.9444,31.2552,47.1206,29.02,47.813z M11.832,56.7781  c-0.862-0.5676-1.5736-1.3247-2.2238-2.119c-0.5451-0.6659-1.3145-1.4242-1.6389-2.2287c-0.3902-0.9678,0.2593-1.4777,0.7999-2.0958  c0.5262-0.6016,1.5883-1.6675,2.0992-2.3901c0.582,0.821,1.9219,2.3453,2.1747,2.5837c0.8342,0.7863,3.2845,2.9725,5.9725,4.5521  C17.0011,57.3606,14.7636,58.7085,11.832,56.7781z M38.7485,48.3888c-1.2076,0.5481-0.6741,3.3384-1.1438,3.6735  c-0.611,0.4131-1.7235-2.1314-2.0577-2.964c-0.3677-0.9161-0.8563-1.8168-1.1778-2.7418c-0.1535-0.4418-0.4933-0.9578-0.8698-1.0493  c-0.2355-0.0573-0.4854,0.0515-0.713,0.4486c-0.6668,1.1632-0.4442,2.9529-0.1832,4.2023c0.3075,1.4716,0.9368,2.8769,1.8415,4.0784  c0.7118,0.9454,1.6177,1.6788,2.8405,1.7255c0.8719,0.0333,1.7519-0.2911,2.3935-0.882c1.4063-1.2952,1.7933-3.8408,1.0858-5.5772  C40.4345,48.4932,39.608,47.9987,38.7485,48.3888z M46.1903,30.0012c-1.0997,0.5429-2.1392,1.2634-2.863,2.2534  c-2.1035,2.877-0.2376,7.2784,3.256,7.804c1.4578,0.2193,2.984-0.2163,4.1077-1.17c1.3909-1.1805,1.8536-2.8575,1.921-4.6162  c0.056-1.4647-0.5843-3.0497-1.6417-4.064C49.5579,28.8535,47.8157,29.1988,46.1903,30.0012z M49.1558,36.2368  c-0.1835,0.2471-0.4194,0.4264-0.681,0.5425c-1.0599,0.4705-2.5422-0.0957-2.6776-1.3919  c-0.0851-0.8149-0.1068-2.9845,1.0849-3.1135c0.1774-0.0192,0.3551,0.03,0.5225,0.0919  C48.8236,32.8909,50.2254,34.7967,49.1558,36.2368z M31.7209,12.1309c-1.0475-0.8088-2.526-0.6672-3.6663-0.1614  c-0.8848,0.3925-1.7516,0.8525-2.4761,1.4942c-1.9507,1.7277-2.4473,5.0045-0.8629,7.1216  c1.4114,1.8862,3.8519,2.3649,5.9366,1.3893c1.9948-0.9335,3.4301-2.7667,3.4717-4.876c0.0096-0.483-0.054-0.9805-0.2006-1.485  C33.5697,14.3971,32.7422,12.9195,31.7209,12.1309z M29.6795,18.9705c-0.6468,0.5285-1.476,0.3342-2.2061,0.1239  c-1.0978-0.3162-1.2048-1.4032-1.0131-2.3868c0.1622-0.8325,0.8481-1.7262,1.721-1.8716c1.17-0.195,2.061,0.3572,2.3187,1.3895  C30.7526,17.2375,30.495,18.3041,29.6795,18.9705z"/></svg>