<svg xmlns="http://www.w3.org/2000/svg" viewBox="0 0 721.02 721.02" x="0px" y="0px" fill="#fb923c"><defs><style>.cls-1{stroke-width:0px;}</style></defs><path class="cls-1" d="M217.17,374.73c.34-.89.56-1.39.73-1.9,11.7-34.83,22.65-69.89,32.09-105.41,5.97-22.48,10.72-45.23,14.04-68.25,1.97-13.67,3.57-27.41,4.99-41.15,1.24-12,2.12-24.03,2.91-36.07.67-10.2.94-20.44,1.49-30.65.31-5.66.37-11.36,1.81-16.89,2.87-11.03,9.45-18.76,20.48-22.16,11.39-3.51,23.78.71,31.27,10.33,2.93,3.76,4.98,8.01,6.74,12.39,5.03,12.52,9.94,25.1,14.92,37.64,4.69,11.8,9.49,23.56,14.12,35.39,11.54,29.53,20.67,59.76,26.23,91.02.78,4.4,1.59,8.8,2.43,13.46.5-.45.93-.74,1.22-1.13,14.75-19.54,31.15-37.71,47.04-56.3,3.07-3.59,6.37-6.96,10.15-9.83,5.64-4.29,11.96-6.73,19.07-6.85,12.35-.22,23.53,7.54,28,19.28,1.49,3.93,2.18,8.02,2.26,12.19.13,6.07.19,12.15.16,18.23-.05,11.69,1.03,23.3,2.15,34.92.62,6.44,1.11,12.9,1.66,19.34.2,2.29.4,4.57.64,7.22.62-.54,1.04-.84,1.37-1.21,12.42-14.14,26.05-27.07,39.92-39.75,5.34-4.88,11.59-7.79,18.83-8.68,14.25-1.74,28.2,8.38,30.81,22.58.37,2.03.34,4.13.56,6.19.14,1.25.21,2.56.66,3.72,5.85,15.18,9.93,30.85,13.19,46.75,2.74,13.39,4.69,26.92,5.81,40.54,1.04,12.66,2.1,25.33,2.61,38.02.39,9.81.11,19.66-.18,29.48-.2,6.86-.77,13.72-1.45,20.55-2.07,20.77-6.82,40.94-14,60.53-8.41,22.96-20.4,43.9-36.36,62.43-17.47,20.28-37.89,37-61.14,50.37-28.12,16.18-58.07,27.57-89.44,35.47-17.3,4.36-34.85,7.35-52.55,9.46-16.62,1.98-33.3,2.75-50.02,1.93-19.74-.96-38.97-4.79-57.85-10.51-34-10.29-63.36-28.24-87.8-54-24.52-25.86-41.67-56.03-51.72-90.24-4.72-16.06-7.9-32.41-9.7-49.05-2-18.48-2.35-37.01-1.66-55.56.55-14.77,1.9-29.5,4.05-44.14,2.7-18.33,5.45-36.65,8.3-54.96,1.7-10.89,7.33-19.02,17.69-23.31,15.02-6.23,32.21,1.63,37.91,17.19,1.29,3.52,2.43,7.1,3.7,10.63,1.63,4.54,3.8,8.81,6.58,12.75,6.86,9.73,13.73,19.45,20.74,29.08,4.23,5.82,8.71,11.45,13.09,17.16.38.5.82.97,1.48,1.75ZM161.35,395.56c-.12.76-.19,1.04-.21,1.33-.32,4.78-.76,9.56-.92,14.35-.49,14.79-.28,29.56,1.2,44.31,1.16,11.47,2.98,22.8,5.85,33.96,5.75,22.39,15.05,43.07,29.21,61.48,9.72,12.64,20.84,23.77,34.03,32.81,23.96,16.43,50.85,24.26,79.4,27.09,13.08,1.3,26.2.77,39.27-.52,17.83-1.76,35.48-4.63,52.85-9.06,23.84-6.08,46.84-14.36,68.46-26.28,14.62-8.07,28.23-17.44,40.39-28.98,15.14-14.36,26.83-31.08,34.97-50.2,7.47-17.52,11.86-35.92,13.78-54.87,1.49-14.65,1.92-29.33,1.13-44.05-.68-12.69-1.49-25.36-2.91-37.99-1.33-11.83-3.05-23.6-5.81-35.2-.14-.61-.34-1.2-.68-2.41-.75.98-1.19,1.64-1.72,2.22-13.02,14.42-23.98,30.3-33.58,47.18-4.26,7.5-8.87,14.8-13.42,22.13-2.25,3.62-5.06,6.78-8.42,9.44-15.55,12.31-37.98,6.46-45.53-11.87-1.76-4.27-2.74-8.74-2.58-13.32.37-10.14.87-20.28,1.5-30.4.68-11.02,1.26-22.04.72-33.07-.59-12.05-1.61-24.07-2.45-36.11-.03-.43-.24-.85-.42-1.45-.38.36-.63.55-.82.79-13.72,16.93-26.03,34.81-36.66,53.83-1.75,3.13-3.67,6.19-5.7,9.15-2.32,3.39-5.31,6.18-8.7,8.51-13.25,9.13-30.73,6.73-41.03-5.64-3.22-3.87-5.41-8.28-6.83-13.08-2.2-7.46-3.18-15.16-4.24-22.83-1.97-14.16-3.72-28.35-5.76-42.5-2.95-20.51-7.45-40.68-13.52-60.49-.22-.72-.51-1.42-.76-2.12-.46.38-.57.73-.62,1.09-.37,2.53-.7,5.06-1.1,7.59-3.71,23.61-8.58,46.97-14.52,70.12-5.85,22.75-12.69,45.21-19.72,67.61-6.46,20.57-13.39,40.99-20.12,61.47-2.84,8.65-5.54,17.35-9.27,25.68-1.81,4.03-3.92,7.89-6.85,11.21-8.51,9.63-19.06,13.41-31.68,10.44-6.99-1.64-12.66-5.63-17.36-10.97-2.69-3.06-5.28-6.22-7.75-9.46-9.84-12.9-19.61-25.86-29.4-38.79-.46-.6-.95-1.18-1.72-2.12Z"/></svg>