<svg xmlns="http://www.w3.org/2000/svg" data-name="Layer 1" viewBox="0 0 64 64" x="0px" y="0px" fill="#b91c1c"><path d="M19.80589,12.55326c1.58398,2.21143,3.84521,3.58301,6.22314,3.79395,3.18689.26251,5.56299,3.42145,5.62201,6.61426.02203.55127.47955.98975,1.03912.95898.55176-.02197.98096-.48682.95898-1.03906-.08179-4.17609-3.26849-8.19275-7.44049-8.52588-2.73163-.19409-5.36768-2.8244-5.98767-5.63141-.37317-1.23059-2.23187-.74091-1.93024.52448.61816,2.15289-1.28467,4.05737-2.86084,5.33539-1.80841,1.62958-3.54706,2.922-3.75989,6.17725.00012.00006.00012,3.2403.00012,3.2403-.15521,7.62555,8.0932,13.19037,15.09875,10.20538,1.20526-.51929.47241-2.32465-.75696-1.85138-5.68927,2.45038-12.49792-2.15216-12.34167-8.35419-.00012.00018-.00012-3.24005-.00012-3.24005.40295-4.0874,4.67151-4.79852,6.13574-8.20801Z" style="" stroke-width=" 0px"/><path d="M40.67015,58.0513c-.01953.96436-.72754,1.77295-1.68359,1.92188-.5459.08545-.91943.59668-.83447,1.14209.08289.54895.60864.92047,1.14209.83447,1.91699-.29883,3.33643-1.92139,3.37598-3.8584.00262-1.31488-1.92719-1.34076-2-.04004Z" style="" stroke-width=" 0px"/><path d="M6.67015,62.0015c6.12787-.00012,12.93665.00006,19.06006,0,1.31042-.02112,1.3175-1.97748-.00006-2-4.42572.00012-9.63666-.00012-14.06,0v-9c0-1.6543,1.3457-3,3-3h14.83984c1.224-.02539,1.34454-1.74438.16016-1.9873v-7.96289c0-.26233-.10626-.49701-.27155-.67535-.0174-.46759-.35364-.85535-.80072-.94476-1.2749-.28516-2.59619-.42969-3.92773-.42969h-4c-3.97449-.01556-7.87555,1.32629-11,3.76324v-22.76324c0-7.16846,5.83154-13,13-13,6.97601-.14966,13.14984,6.02655,12.99988,13.00006.00012-.00006.00012,5.01996.00012,5.01996,0,.55225.44775,1,1,1s1-.44775,1-1v-5.02002c.1734-8.0448-6.95197-15.17432-15.00012-14.99988-8.27087-.00012-14.99988,6.72888-14.99988,14.99988v24.55811c-3.15973,3.29749-5,7.7226-5,12.44189v4c0,2.20557,1.79443,4,4,4ZM17.67015,38.30692c3.02228-.47253,6.9585-.47369,10-.00464v7.69922h-10v-7.69458ZM13.67015,39.62107c.65088-.31873,1.31848-.59271,2-.81812v7.19855h-2v-6.38043ZM4.67015,54.0015c-.00867-5.33514,2.67749-10.29083,7-13.21844v6.21844c-1.2052.93542-2,2.37103-2,4v9h-3c-1.10303,0-2-.89697-2-2v-4Z" style="" stroke-width=" 0px"/><path d="M21.03978,49.0015c-1.31409.02228-1.31445,1.97778.00006,2-.00006,0,.99994,0,.99994,0,1.31415-.02228,1.31445-1.97778,0-2h-1Z" style="" stroke-width=" 0px"/><path d="M12.67015,57.06156v1c.02228,1.31409,1.97778,1.31445,2-.00006,0,.00006,0-.99994,0-.99994-.02228-1.31415-1.97778-1.31445-2,0Z" style="" stroke-width=" 0px"/><path d="M14.67015,52.06156c-.02228-1.31415-1.97778-1.31445-2,0v1c.02228,1.31409,1.97778,1.31445,2-.00006,0,.00006,0-.99994,0-.99994Z" style="" stroke-width=" 0px"/><path d="M27.03978,51.0015c1.31415-.02228,1.31445-1.97778,0-2h-1c-1.31409.02228-1.31445,1.97778.00006,2-.00006,0,.99994,0,.99994,0Z" style="" stroke-width=" 0px"/><path d="M16.03978,49.0015c-1.31409.02228-1.31445,1.97778.00006,2-.00006,0,.99994,0,.99994,0,1.31415-.02228,1.31445-1.97778,0-2h-1Z" style="" stroke-width=" 0px"/><path d="M50.28001,36.94779c2.52856-3.45105-2.43958-7.28564-5.14166-3.96185-2.52539,3.46301,2.45117,7.28503,5.14166,3.96185ZM46.72246,34.20652c1.02637-1.28082,2.95038.21106,1.97357,1.52057-1.02014,1.28101-2.94977-.20593-1.97357-1.52057Z" style="" stroke-width=" 0px"/><path d="M34.11803,34.48105c3.44977,2.52258,7.28662-2.43683,3.96179-5.14166-3.45782-2.52209-7.28436,2.44092-3.96179,5.14166ZM37.08568,32.67045c-1.0213,1.27979-2.95129-.20825-1.97406-1.52057,1.02429-1.27753,2.94922.20587,1.97406,1.52057Z" style="" stroke-width=" 0px"/><path d="M45.38939,49.69144l-9.88379,3.58301-2.39014-1.83984.95068-10.48291c.0498-.55029-.35596-1.03662-.90576-1.08643-.54785-.04443-1.03613.35596-1.08643.90576l-.95776,10.56433-4.98413,3.35559c-.23047.15527-.38574.39893-.4292.67334-.57428,3.09106,3.45404,7.70172,7.89465,6.08295.25427-.11224.45007-.32465.54138-.58685l1.69031-4.85999c.7207.47272,1.06799,1.42767.45135,2.16858-.61731.60059-.12317,1.72083.72217,1.69141,1.32269-.18323,1.75891-2.04034,1.51434-3.21021,1.4483.20453,5.95355-1.47205,4.44861-3.25519-.40588-.37445-1.03723-.3515-1.4137.05328-.85809.95288-2.43243,1.40527-3.77106,1.12823l8.2901-3.00519c1.22736-.46826.56177-2.30725-.68164-1.87988ZM33.52361,56.54178c-.46387.08453-.98651-.10211-1.27289-.47583-.33594-.43799-.96436-.52051-1.40234-.18457-1.25952,1.20099.85431,2.53986,1.98761,2.63751l-.41681,1.19843c-1.98083.50482-4.73383-1.61359-4.74414-3.6543l4.36035-2.93555,2.11035,1.62549-.62213,1.78882Z" style="" stroke-width=" 0px"/><path d="M51.64439,47.98545c3.45184,2.52417,7.28998-2.44354,3.96179-5.14166-3.45111-2.52875-7.28577,2.44037-3.96179,5.14166ZM52.63847,44.65427c1.01904-1.28125,2.95258.20795,1.97357,1.52057-1.02094,1.27972-2.94952-.20618-1.97357-1.52057Z" style="" stroke-width=" 0px"/><path d="M34.06029,24.99711c-1.66412-.54706-3.57123.77649-3.66504,2.51318-1.66016.51239-2.45526,2.73895-1.49902,4.19336-1.03595,1.3924-.37506,3.66309,1.25977,4.27588-.00507,1.7616,1.84125,3.1734,3.53174,2.71289,1.02173,1.42181,3.33112,1.49359,4.43506.12891.87549.25977,1.90204.10333,2.60968-.52911.28564.31909.63885.57397,1.03485.74152-.01202,1.75214,1.83472,3.17627,3.52539,2.71582.26276.33978.599.61615.9801.81097-.42255.8407-.30847,1.87177.15271,2.64801-1.0423,1.40857-.37085,3.66138,1.25146,4.27734-.0166,1.73096,1.84113,3.17151,3.52881,2.7124,1.01984,1.42865,3.3504,1.49072,4.45166.125,1.65643.55377,3.6037-.76752,3.67822-2.51611,1.66431-.52722,2.44122-2.7356,1.49609-4.18457,1.03845-1.38708.37433-3.67291-1.2627-4.27686.00739-1.75177-1.83386-3.17194-3.52588-2.71289-.26239-.34155-.59894-.61829-.98004-.81244.42792-.83972.30792-1.87463-.15619-2.65045,1.04041-1.41119.38196-3.64569-1.25537-4.26953.01147-1.75342-1.83356-3.17389-3.5249-2.71582-1.0202-1.4248-3.35474-1.49365-4.44873-.12549-.86627-.24902-1.89941-.104-2.60236.5238-.28442-.31726-.63623-.57111-1.02997-.73914.02722-1.74158-1.836-3.17999-3.52783-2.71729-1.01923-1.4231-3.37665-1.50177-4.45752-.12939ZM54.61107,40.16703c.14978.66974,1.01477.98291,1.55762.56293.27246-.1972.7041-.27435,1.06396.00592.74969.55585-.10907,1.30237.38086,1.94824.42511.69751,1.42749.16577,1.68604,1.05518.11084.3833-.04053.78467-.37695.99902-.58636.3501-.61469,1.2666-.05029,1.65186.70203.47253.30298,1.66351-.56061,1.58344-.32904-.02679-.64789.12311-.85101.38434-.52942.61273.27881,1.42737-.49072,1.93506-.32422.21973-.76172.19727-1.06299-.05273-.51794-.4538-1.39746-.19208-1.58887.46582-.23236.82208-1.49097.80121-1.67871-.0401-.08154-.32172-.31689-.58197-.62939-.69476-.73511-.31299-1.27643.70105-1.98486.13177-.76282-.5694.10425-1.29877-.38812-1.95404-.4295-.70123-1.43451-.15674-1.68018-1.07916-.28473-.88116.85303-.97772.83295-1.78802.06281-.82025-1.0675-.96924-.72406-1.86377.12347-.3584.4809-.59277.8725-.56836.53656.04913,1.03296-.39807,1.05273-.93036,1.51208.36481,3.15436-.75043,3.36926-2.29242.47131-.2865,1.1264-.00311,1.25085.54016ZM42.87871,34.83109c.06543-.81366-1.06891-.97253-.73682-1.84863.25482-.84857,1.31482-.31812,1.7392-.96539.53113-.61981-.29272-1.414.48981-1.92767.74243-.54254,1.22186.51178,1.97504.24121.31787-.09375.56885-.33887.66992-.6543.12207-.38037.46924-.60791.86035-.61768.93671.0094.67291,1.12122,1.45508,1.35596.74414.3125,1.2677-.71417,1.98584-.12939.7525.55774-.11365,1.3031.38086,1.95264.43097.69965,1.4306.15521,1.68164,1.0625.28204.89374-.85822.98596-.83936,1.80273-.06488.81415,1.06842.97192.73633,1.84814-.30774.89215-1.27112.28851-1.73926.96533-.53119.61951.29303,1.41473-.49023,1.92822-.7381.54199-1.22412-.51062-1.97412-.24078-.31787.09381-.56885.33893-.66992.65436-.12256.37988-.48389.61572-.85938.61719-.93854-.00952-.67322-1.12164-1.45654-1.35645-.74377-.31281-1.2663.71527-1.98535.13031-.75287-.55908.11426-1.30273-.3808-1.95306-.43066-.6994-1.43097-.15576-1.68213-1.06207-.28137-.89514.85846-.98627.83984-1.80316ZM37.09398,26.66855c.08447.31879.3208.57513.63184.68549.73425.3053,1.27148-.69983,1.97998-.1333.31006.2417.42041.65283.27441,1.02344-.26996.62946.24689,1.38641.93024,1.36719.54962-.01208,1.03204.54095.85126,1.07965-1.44.60345-2.09772,2.48438-1.35101,3.85406-.52094.13519-.81549.72803-.64288,1.23181.12354.38574-.0083.79004-.33594,1.01172-.76105.53558-1.23444-.51544-1.97949-.23486-.77625.18353-.61169,1.32855-1.51709,1.26801-.93793-.02429-.67737-1.12939-1.46484-1.3642-.74347-.30762-1.2677.72632-1.98291.12933-.7403-.54968.11053-1.31696-.38715-1.95746-.18756-.26807-.49371-.42773-.82037-.42773-.39697.03516-.7417-.25049-.84912-.61768-.28296-.90912.8598-.99457.83942-1.82031.06116-.81744-1.07361-.95251-.73877-1.83545.13275-.37012.47455-.6001.88763-.57861.67957.06287,1.2475-.66986,1.00977-1.31445-.29865-.79114.73572-1.52277,1.38434-.95264.51617.45184,1.39838.19257,1.58881-.46588.25824-.82898,1.49615-.79907,1.69189.05188Z" style="" stroke-width=" 0px"/></svg>