<svg xmlns="http://www.w3.org/2000/svg" viewBox="0 0 721.02 721.02" x="0px" y="0px" fill="#f87171"><defs><style>.cls-1{stroke-width:0px;}</style></defs><path class="cls-1" d="M371.14,585.92c.4.34.67.63.99.84,8.46,5.6,16.93,11.2,26.01,15.78,1.99,1,4.08,1.81,6.15,2.66,10.96,4.51,17.54,12.57,18.45,24.42.91,11.84-4.2,20.96-14.52,26.88-7.19,4.13-14.89,4.37-22.75,2.12-6.12-1.75-11.69-4.73-17.24-7.74-11.61-6.29-22.62-13.54-33.51-20.98-.65-.45-1.32-.87-2.2-1.45-.9.93-1.77,1.83-2.65,2.73-17.06,17.41-34.12,34.83-51.19,52.24-2.75,2.81-5.72,5.34-9.15,7.31-16.99,9.74-38.07.54-42.06-18.53-2.13-10.16.89-18.91,8.19-26.27,16.77-16.92,33.5-33.87,50.24-50.81.38-.38.7-.82,1.14-1.33-.67-.58-1.27-1.11-1.87-1.61-25.53-21.24-49.93-43.68-72.22-68.35-23.44-25.93-44.33-53.76-62-83.94-19.99-34.14-36.12-69.97-46.82-108.13-4.17-14.87-7.21-29.96-9.46-45.24-2.63-17.83-3.95-35.74-3.63-53.75.38-21.41,2.68-42.59,8.1-63.34,5.84-22.34,14.91-43.18,29.36-61.41,10.49-13.23,23.04-23.94,38.67-30.67,12.12-5.22,24.82-7.87,38.04-7.42,16.75.57,32.15,5.65,46.36,14.48,14.11,8.77,25.76,20.17,35.65,33.42,10.58,14.17,18.81,29.67,25.84,45.84,8.88,20.43,15.48,41.61,21.05,63.14.11.44.28.87.61,1.91.6-1.39.99-2.28,1.37-3.18,9.59-22.97,20.57-45.25,33.43-66.56,11.91-19.74,25.1-38.59,40.34-55.94,15.94-18.15,33.47-34.55,53.36-48.34,16.4-11.38,34-20.29,53.23-25.83,14.81-4.27,29.86-5.46,45.08-2.95,18.15,2.98,33.06,11.84,45.06,25.7,9.38,10.84,15.5,23.39,19.21,37.16,3.85,14.26,4.73,28.83,4.03,43.51-1.35,28.19-7.99,55.28-17.27,81.79-8.2,23.42-18.39,45.99-29.62,68.08-17.4,34.23-36.82,67.29-57.48,99.63-29.15,45.64-60.78,89.51-94.29,132.05-18.8,23.87-38.39,47.07-58.32,70-.56.65-1.09,1.33-1.7,2.07ZM325.45,551.87c.8-.88,1.39-1.52,1.97-2.17,29.81-33.95,58.4-68.9,85.46-105.09,35.4-47.35,68.35-96.32,97.64-147.71,13.74-24.11,26.68-48.61,37.7-74.1,7.08-16.37,13.34-33.04,17.88-50.31,3.83-14.57,6.67-29.3,7.14-44.39.25-8.16.08-16.32-2.09-24.27-1.77-6.49-4.44-12.5-9.45-17.21-2.87-2.7-6.23-4.36-10.19-4.88-6.86-.9-13.54-.09-20.13,1.85-12.7,3.73-24.29,9.75-35.14,17.23-19.85,13.68-36.79,30.45-51.76,49.24-15.25,19.12-28.17,39.75-39.37,61.49-22.84,44.35-38.46,91.18-48.05,140.08-.78,3.99-1.5,8.04-2.79,11.88-3.93,11.71-14.71,19.42-26.9,19.56-12.07.14-22.84-7.18-26.96-18.67-1.15-3.2-1.75-6.64-2.19-10.03-1.72-13.39-3.06-26.83-4.94-40.2-1.84-13.05-3.84-26.09-6.34-39.02-4.04-20.95-9.15-41.66-15.77-61.97-5.43-16.67-11.96-32.88-20.68-48.15-4.61-8.08-9.91-15.68-16.44-22.34-5.53-5.64-11.65-10.48-19.04-13.49-11.02-4.49-21.45-3.09-31.19,3.53-5.35,3.63-9.55,8.46-13.3,13.7-5.63,7.86-9.68,16.52-12.93,25.59-5.95,16.64-8.45,33.92-9.49,51.45-1.06,17.77-.17,35.46,2.32,53.09,2.11,14.89,5.18,29.57,9.45,44.01,9.87,33.38,24.4,64.69,42.24,94.5,16.73,27.96,36.65,53.52,58.89,77.29,19.09,20.41,39.75,39.13,61.27,56.93.98.81,1.96,1.62,3.17,2.61Z"/></svg>