<svg xmlns="http://www.w3.org/2000/svg" version="1.1" viewBox="-5.0 -5.0 110.0 110.0" fill="#15803d">
 <g>
  <path d="m95.414 31.305v-11.512c0-4.668-3.8008-8.4688-8.4688-8.4688h-65.422c-5.9766 0-10.84 4.8633-10.84 10.84v12.707l-6.1016 4.0117v49.793l83.371 0.003907v-49.797l-6.1016-4.0117v-3.5664h13.57zm-3.3672-11.512v8.1406h-10.199v-8.1406c0-2.8086 2.2891-5.1016 5.1016-5.1016s5.1016 2.2891 5.1016 5.1016zm-70.523-5.0977h58.707c-1.0859 1.4219-1.7539 3.1797-1.7539 5.1016v27.379l-20.258 17.328-4.3477-3.1641c-4.5547-3.3164-10.664-3.3164-15.219 0l-4.3477 3.1641-20.258-17.332 0.003906-25.008c0-4.1172 3.3516-7.4727 7.4727-7.4727zm9.9883 51.844-23.559 17.145v-37.301l23.559 20.152zm9.1289-2.4766c3.3633-2.4453 7.8867-2.4453 11.254 0l29.195 21.242h-69.645zm20.383 2.4766 23.559-20.156v37.297zm-50.34-27.637v5.3867l-2.7305-2.3359v-1.2539zm73.898 1.7969v1.2539l-2.7344 2.3398v-5.3906l2.7344 1.8008z"/>
  <path d="m34.227 42.07s10.504-6.8828 10.504-13.602c0-2.8984-2.3516-5.25-5.25-5.25-2.8984 0-5.2539 2.3516-5.2539 5.25 0-2.8984-2.3516-5.25-5.25-5.25-2.8984 0-5.25 2.3516-5.25 5.25 0 6.7188 10.504 13.602 10.504 13.602z"/>
  <path d="m53.066 27.695h20.992v3.3672h-20.992z"/>
  <path d="m53.066 38.133h20.992v3.3672h-20.992z"/>
  <path d="m24.574 48.203h43.383v3.3672h-43.383z"/>
 </g>
</svg>