<svg xmlns="http://www.w3.org/2000/svg" viewBox="0 0 721.02 721.02" x="0px" y="0px" fill="#2dd4bf"><defs><style>.cls-1{stroke-width:0px;}</style></defs><path class="cls-1" d="M124.3,496.13c-1.75-.81-3.28-1.5-4.78-2.23-15.86-7.64-29.32-18.13-39.05-33.01-7.08-10.82-11.37-22.68-12.8-35.52-1.89-16.89.36-33.31,5.96-49.31,4.35-12.41,10.1-24.16,17.01-35.34.54-.87,1.04-1.77,1.62-2.77-1.04-.65-1.98-1.23-2.91-1.82-14.85-9.38-24.49-22.47-28.12-39.75-2.18-10.4-1.72-20.83.48-31.18,3.02-14.2,8.81-27.34,15.88-39.93,9.12-16.23,20.2-31.07,32.28-45.19,23.33-27.26,50.32-50.42,79.71-70.87,24-16.7,49.26-31.19,75.95-43.14,23.02-10.31,46.76-18.5,71.47-23.73,21.97-4.64,44.18-7.09,66.66-6.39,13.44.42,26.79,1.7,39.83,5.24,8.24,2.24,16.01,5.48,22.75,10.87,6.08,4.86,10.27,10.88,11.78,18.63,3.29,16.96-9.83,33.1-27.12,33.36-6.47.1-12.34-1.69-17.46-5.61-2.11-1.62-4.38-2.65-6.92-3.05-5.52-.87-11.04-1.83-16.6-2.32-11.34-1.01-22.7-.71-34,.48-16.96,1.77-33.6,5.15-49.92,10.17-29.04,8.93-56.18,21.96-82.06,37.73-28.79,17.54-55.42,37.86-78.89,62.15-11.68,12.1-22.36,25.03-31.68,39.06-5.95,8.95-11.13,18.29-14.6,28.5-1.24,3.64-2.12,7.35-2.26,11.23-.1,2.81.91,4.88,3.5,5.94,2.65,1.08,5.39,1.92,8.08,2.91.93.34,1.5-.07,2.09-.69,1.32-1.39,2.67-2.76,4.02-4.12,28.82-29.08,61.36-53.33,96.54-74.11,29.64-17.51,60.63-32.2,92.76-44.54,25.22-9.68,50.88-17.98,77.18-24.21,14.08-3.34,28.29-6.02,42.72-7.29,10.78-.95,21.56-1.02,32.22,1.28,6.56,1.42,12.66,3.9,18.03,8.01,12.62,9.67,17.52,25.65,12.73,41.49-2.23,7.38-6.12,13.86-10.87,19.86-6.79,8.58-14.8,15.92-23.37,22.64-18.03,14.15-37.48,26.13-57.56,37.1-22.58,12.34-45.84,23.28-69.57,33.24-35.68,14.97-72.03,27.97-109.59,37.43-16.43,4.14-33.01,7.56-49.82,9.73-9.83,1.27-19.67,2.44-29.6,2.58-1.78.02-2.9.64-4,2.04-8.06,10.29-15.24,21.13-20.8,32.98-3.44,7.34-6.13,14.93-7.16,23.01-.58,4.54-.63,9.1.31,13.6,1.36,6.47,4.94,11.54,10.06,15.58,6.19,4.88,13.38,7.64,20.75,10.18,3.48,1.19,5.45.44,7.89-2.29,18.04-20.2,37.94-38.45,59.05-55.4,42.62-34.21,88.85-62.71,137.62-87.21,27.56-13.84,55.73-26.33,84.43-37.6,25.13-9.87,50.56-18.86,76.64-25.96,11.26-3.06,22.63-5.66,34.18-7.29,10.24-1.44,20.54-2.03,30.83-.65,12.01,1.62,22.4,6.42,29.92,16.28,6.47,8.48,8.74,18.15,7.63,28.69-.94,8.92-4.27,17-8.7,24.68-5.3,9.19-11.91,17.4-19.08,25.17-13.97,15.15-29.53,28.54-45.71,41.24-42.63,33.45-88.82,61.07-137.79,84.13-36.34,17.11-73.75,31.34-112.52,41.92-19.74,5.39-39.72,9.69-59.98,12.62-16.88,2.43-33.85,3.61-50.9,3.35-3.71-.96-5.69.95-7.64,3.9-6.54,9.88-12.84,19.86-17.1,30.99-2.01,5.24-3.71,10.57-4.37,16.15-.34,2.91-.33,5.91-.1,8.84.32,3.95,2.14,7.31,4.92,10.15,2.54,2.6,5.48,4.64,8.64,6.4,7.39,4.13,15.36,6.67,23.55,8.6,16.12,3.8,32.48,5.13,49.01,4.9,11.76-.16,23.49-.8,35.17-2.12,12.47-1.41,24.85-3.41,37.15-5.88,24.06-4.85,47.66-11.4,70.99-18.99,1.93-.63,2.94-1.59,3.64-3.55,6.17-17.27,15.04-33.13,25.48-48.16,15.49-22.3,34.26-41.52,55.26-58.61,22-17.91,45.93-32.69,72.07-43.79,13.33-5.66,27.03-10.21,41.27-13.01,10.66-2.09,21.38-2.94,32.19-1.67,10.63,1.25,20.36,4.8,28.42,12.08,9.15,8.27,13.73,18.63,13.99,30.95.2,9.52-2.48,18.3-6.72,26.68-4.18,8.26-9.75,15.56-15.83,22.49-9.53,10.86-20.43,20.23-31.81,29.08-27.99,21.77-58.34,39.73-89.95,55.65-23.62,11.9-47.81,22.52-72.47,32.09-.81.32-1.62.65-2.57,1.03.57,4.42,2.16,8.04,6.31,10.12,3.76,1.89,7.78,2.85,11.94,3.32,6.57.75,13.09.05,19.6-.72,15.79-1.85,30.95-6.32,46.06-11.02,17.84-5.55,35.66-11.15,53.49-16.72,12.51-3.91,25.29.29,32.48,10.68,10,14.46,4.62,34.25-11.55,41.74-4.18,1.93-8.68,3.19-13.1,4.56-20.74,6.42-41.48,12.86-62.26,19.13-13.64,4.11-27.6,6.77-41.76,8.34-10.44,1.15-20.88,1.55-31.33.12-11.67-1.6-22.78-4.91-32.98-10.93-14.75-8.7-24.61-21.33-30.06-37.49-.25-.75-.48-1.51-.78-2.45-.65.11-1.26.16-1.84.33-17.29,5.19-34.77,9.64-52.43,13.37-13.84,2.93-27.79,5.2-41.82,7-15.16,1.94-30.39,2.89-45.67,3.07-25.96.32-51.53-2.42-76.39-10.28-12.34-3.9-23.98-9.28-34.5-16.9-14.58-10.56-24.92-24.19-29.88-41.66-2.89-10.21-3.42-20.64-2.35-31.13,1.96-19.24,8.87-36.86,18.1-53.67,1-1.82,2.04-3.61,3.19-5.64ZM551.05,290.07c-.09-.15-.18-.3-.26-.46-4.41,1.07-8.85,2.06-13.24,3.22-22.95,6.08-45.3,13.98-67.44,22.45-23.94,9.16-47.44,19.39-70.55,30.49-35.55,17.08-69.87,36.31-102.45,58.59-18.68,12.78-36.74,26.38-53.84,41.22-.59.51-1.42.89-1.65,1.97.82-.09,1.45-.13,2.07-.24,13.77-2.41,27.38-5.55,40.87-9.22,32.73-8.91,64.42-20.71,95.27-34.79,49.11-22.41,95.32-49.64,137.66-83.25,10.84-8.6,21.35-17.58,31.09-27.42.83-.84,1.65-1.71,2.47-2.56ZM230.66,279.5c.1.15.19.3.29.45.84-.23,1.68-.45,2.52-.68,43.09-12.07,84.62-28.25,124.97-47.51,20.12-9.61,39.76-20.13,58.43-32.39.71-.47,1.4-.97,2.1-1.45-.08-.16-.17-.32-.25-.47-67.45,16.43-130.46,43.03-188.05,82.05ZM478.05,535.64c.7-.29,1.43-.55,2.11-.89,4.51-2.23,9.03-4.45,13.51-6.72,25.91-13.14,50.89-27.81,74.11-45.35,7.91-5.98,15.68-12.13,22.74-19.12.6-.59,1.16-1.22,1.74-1.83-20.79,5.04-39.73,14.07-57.68,25.33-21.25,13.33-40.14,29.45-56.53,48.59Z"/></svg>