<svg xmlns="http://www.w3.org/2000/svg" viewBox="0 0 721.02 721.02" x="0px" y="0px" fill="#facc15"><defs><style>.cls-1{stroke-width:0px;}</style></defs><path class="cls-1" d="M392.58,50.09c32.08,1.16,66.09,8.48,98.7,22.21,28.76,12.11,54.81,28.55,77.99,49.42,32.8,29.54,57.31,64.93,73.8,105.88,9.7,24.07,16.02,49.01,19.25,74.74,1.57,12.53,2.26,25.13,2.33,37.77.06,9.93-.41,19.83-1.32,29.69-2.31,25-7.44,49.43-15.46,73.22-16.4,48.66-42.51,91.41-78.36,128.16-31.72,32.52-68.56,57.58-110.62,74.85-24.94,10.24-50.77,17.21-77.53,20.74-19.08,2.51-38.22,3.28-57.41,2.09-29.47-1.83-58.03-7.89-85.62-18.49-31.82-12.22-60.49-29.6-85.92-52.28-33.46-29.85-58.27-65.78-74.89-107.39-8.78-21.98-14.78-44.72-18.13-68.14-1.62-11.32-2.73-22.69-2.88-34.13-.1-7.83-.29-15.68.07-23.49,1.63-35.98,9.01-70.75,22.15-104.31,15.45-39.45,37.52-74.76,66.27-105.84,33.56-36.29,73.18-63.92,119.05-82.46,23.95-9.68,48.74-16.27,74.35-19.76,16.91-2.3,33.88-3.18,54.19-2.49ZM387.35,106.63c-11.84-.44-23.66.05-35.43,1.37-15.59,1.75-30.9,4.94-45.9,9.56-32.37,9.98-61.78,25.59-88.2,46.74-40.78,32.64-70.22,73.52-88.39,122.49-7.37,19.86-12.24,40.34-14.68,61.38-1.1,9.52-1.79,19.08-1.78,28.7.02,10.25.47,20.45,1.63,30.62,2.49,21.78,7.75,42.89,15.97,63.22,13.06,32.31,32.23,60.44,58.16,83.77,39.42,35.46,85.91,54.21,138.64,57.79,12.78.87,25.55.49,38.31-.75,23.12-2.25,45.49-7.67,67.11-16.09,36.58-14.25,68.51-35.61,95.96-63.65,23.96-24.47,42.79-52.43,56.52-83.81,10.71-24.46,17.69-49.96,20.87-76.46,1.23-10.23,2-20.51,1.84-30.85-.13-9.12-.53-18.2-1.5-27.27-2.44-22.86-7.9-44.97-16.67-66.22-13.09-31.74-32.15-59.32-57.61-82.44-19.31-17.53-41.04-31.22-65.13-41.1-25.53-10.47-52.16-16.03-79.73-16.98Z"/><path class="cls-1" d="M338.18,519.1c-31.61-1.14-58.75-7.25-84.22-19.72-45.34-22.2-76.9-57.16-95.01-104.24-4.45-11.56-2.56-22.31,6.29-31.21,13.43-13.5,36.17-9.73,44.92,7.27.91,1.77,1.64,3.64,2.38,5.49,11.68,29.25,30.92,51.99,58.37,67.61,13.66,7.77,28.32,12.85,43.78,15.62,25.74,4.61,51.09,2.63,76.09-4.67,23.19-6.77,44.3-17.68,63.58-32.19,16.21-12.19,30.36-26.44,42.46-42.71,4.46-5.99,10.02-10.38,17.4-11.92,11.74-2.46,21.69.97,28.88,10.55,7.32,9.75,7.62,20.37,1.91,31.12-.78,1.47-1.76,2.86-2.77,4.2-30.31,40.2-68.57,70.05-115.5,88.57-19.26,7.6-39.22,12.5-59.8,14.88-9.27,1.07-21.8,1.57-28.77,1.36Z"/><path class="cls-1" d="M256.56,331.86c-.32-10.22-.66-20.43-.95-30.65-.2-6.87-.32-13.73-.49-20.6-.3-11.82-.66-23.63-.91-35.45-.1-4.78-.37-9.59.72-14.32,3.03-13.17,14.81-22.33,28.3-22.01,13.17.31,24.5,9.99,26.95,23.07.35,1.88.57,3.8.62,5.71.37,13.49.69,26.99,1.01,40.48.15,6.47.27,12.94.42,19.4.3,12.53.62,25.07.92,37.6.35,14.64-9.3,27.13-23.19,30.04-17.49,3.66-34.16-10.14-33.81-28,.03-1.76.12-3.51.18-5.27.08,0,.17,0,.25,0Z"/><path class="cls-1" d="M456.67,229.65c-.76,8.77-1.46,16.81-2.15,24.85-.42,4.94-.79,9.88-1.26,14.81-1.09,11.45-2.23,22.89-3.35,34.34-.58,5.96-1.03,11.94-1.75,17.89-1.47,12-7.66,20.59-19.19,24.64-17.09,6-35.17-5.63-37.05-23.67-.3-2.84-.18-5.75.06-8.6.56-6.69,1.33-13.35,1.98-20.03,1.18-12.16,2.38-24.33,3.49-36.5.76-8.35,1.32-16.72,2.09-25.08.39-4.2.46-8.45,1.68-12.56,3.85-12.94,15.68-21.2,29.28-20.36,12.85.8,23.71,10.8,25.73,23.83.37,2.35.34,4.77.44,6.43Z"/></svg>