<svg id="visual" viewBox="0 0 900 900" width="500" height="500" xmlns="http://www.w3.org/2000/svg" xmlns:xlink="http://www.w3.org/1999/xlink" version="1.1"><g transform="translate(429.60612294594455 401.18624787769477)"><path d="M185.7 -319.7C239.1 -290.9 279.8 -237.9 318.4 -180.6C357 -123.3 393.5 -61.7 420.5 15.6C447.5 92.8 464.9 185.7 440.1 266.9C415.3 348 348.3 417.6 267.9 438.8C187.5 460.1 93.8 433 0.6 432C-92.5 430.9 -185 455.8 -259.8 431.3C-334.5 406.8 -391.6 332.9 -406.7 252.8C-421.7 172.7 -394.9 86.3 -394.3 0.3C-393.7 -85.7 -419.4 -171.3 -387.4 -222.1C-355.4 -272.8 -265.6 -288.6 -191.4 -305.5C-117.2 -322.3 -58.6 -340.2 3.8 -346.7C66.2 -353.3 132.3 -348.5 185.7 -319.7" fill="#000000"></path></g></svg>