<svg xmlns="http://www.w3.org/2000/svg" viewBox="0 0 720 720" x="0px" y="0px" fill="#4ade80"><defs><style>.cls-1{stroke-width:0px;}</style></defs><path class="cls-1" d="M169.26,299.32c-1.69-1.35-3.11-2.49-4.54-3.63-14.88-11.83-28.6-24.85-40.45-39.76-13.8-17.36-24.73-36.29-31.24-57.61-4.19-13.72-6.08-27.77-5.47-42.11.62-14.6,4.2-28.45,11.52-41.15,10.84-18.81,27.14-30.7,47.81-36.72,17.57-5.11,35.13-4.57,52.76.17,23.63,6.36,44.13,18.33,62.73,33.91,9.15,7.67,17.52,16.13,25.47,25.02.52.59,1.08,1.15,1.85,1.96.29-.85.54-1.46.7-2.1,3.17-12.67,7.32-24.99,13.52-36.54,5.21-9.71,11.54-18.61,19.62-26.18,7.7-7.22,16.47-12.63,26.71-15.44,20.25-5.56,40.41,3.38,51.12,18.75,5.23,7.51,8.61,15.83,10.84,24.66,2.6,10.28,3.81,20.72,3.94,31.32.12,10.32-.25,20.62-1.3,30.89-.02.21.07.43.16.89.89-.6,1.67-1.11,2.43-1.65,15.96-11.36,32.3-22.14,49.7-31.22,18.68-9.74,38.06-17.74,58.49-23.05,10.93-2.84,22.01-4.83,33.3-5.41,18.17-.95,35.7,1.85,52.27,9.6,9.68,4.53,18.21,10.71,24.92,19.09,11.32,14.13,13.12,29.76,6.59,46.44-2.91,7.42-7.25,14.06-12.38,20.14-8.96,10.62-19.19,19.92-30.34,28.17-14.4,10.65-28.99,21.02-44.58,29.89-.33.19-.64.43-1.26.84,1.59.43,2.86.77,4.13,1.11,17.13,4.54,33.67,10.69,49.12,19.38,13.74,7.73,26.17,17.22,36,29.76,7.57,9.65,13.62,20.08,16.61,32.11,5.4,21.66.02,40.47-15.02,56.65-7.85,8.44-17.39,14.5-27.93,19.04-14.9,6.41-30.47,9.94-46.63,11.06-10.15.7-20.29.62-30.43.03-1-.06-2.01,0-3.35,0,.56.74.91,1.25,1.3,1.71,23.31,27.47,38.47,59.01,47.01,93.87,3.76,15.35,5.98,30.89,5.81,46.73-.16,15.68-2.94,30.85-9.18,45.27-8.46,19.54-22.46,33.56-42.41,41.37-8.72,3.41-17.83,4.86-27.18,5.14-20.63.6-40.1-4.03-58.69-12.77-24.65-11.58-45.29-28.29-62.93-48.91-14.76-17.26-26.6-36.35-36.09-56.92-3.68-7.97-6.93-16.14-10.37-24.22-.33-.78-.67-1.56-1.14-2.63-.47.78-.8,1.29-1.09,1.82-2.72,5.07-5.38,10.17-8.14,15.22-9.68,17.62-21.55,33.64-35.66,47.96-6.7,6.8-14.15,12.72-22.52,17.38-7.32,4.07-15.06,6.97-23.45,7.94-18.7,2.16-33.94-4.05-45.51-18.94-6.13-7.89-9.89-16.96-12.3-26.57-3.58-14.28-3.94-28.76-2.22-43.33,1.57-13.32,4.94-26.19,9.67-38.73.16-.43.27-.88.47-1.56-2.38.37-4.57.71-6.76,1.05-7.43,1.16-14.91,1.82-22.44,1.86-28.06.14-53.02-8.64-75.04-25.98-10.33-8.13-19.11-17.69-26.48-28.55-5.49-8.08-9.56-16.79-11.3-26.48-2.51-14.02-.28-27.18,7.09-39.43,5.35-8.88,12.25-16.38,20.44-22.67,15.64-12,32.77-21.34,51.16-28.4,9.55-3.67,19.31-6.69,29.27-9.04.3-.07.58-.23,1.32-.52ZM379.96,445.44c2.02,6.88,3.99,13.46,5.89,20.05,4.97,17.21,10.71,34.13,18.21,50.43,8.37,18.18,18.47,35.23,31.92,50.17,13.23,14.7,28.49,26.53,46.99,33.92,8.89,3.55,18.06,5.29,27.62,5.04,3.78-.1,7.47-.66,10.83-2.62,4.45-2.6,7.04-6.63,8.77-11.32,2.94-7.97,4.11-16.23,3.89-24.71-.29-11.57-2.31-22.87-5.33-34.01-5.14-18.96-12.75-36.8-23.92-53.04-8.29-12.05-18.11-22.73-28.77-32.7-13.13-12.27-27.38-23.05-42.79-32.29-.8-.48-1.63-.91-2.46-1.36-13.95,15.61-30.81,26.29-50.85,32.44ZM291.08,251.63c-.97-2.86-1.68-5.67-2.85-8.28-3.04-6.77-6.07-13.56-9.48-20.15-13.63-26.37-31.59-49.37-54.31-68.51-12.29-10.36-25.97-18.26-41.82-21.98-6.92-1.63-13.76-1.81-20.58.28-6.9,2.11-12.25,6.04-15.1,12.95-1.86,4.5-2.7,9.19-2.8,14.01-.24,11.22,2.38,21.87,6.88,32.07,7,15.86,17.19,29.51,29.33,41.75,12.2,12.3,25.65,23.13,40.24,32.45,14.13,9.03,28.53,17.64,42.82,26.43.24.15.56.18.87.28,6.8-15.23,15.26-29.25,26.79-41.29ZM308.52,349.93c.04,7.72.87,13.29,3,19.28,3.92,11.02,11.23,18.58,22.57,22.02,7.63,2.31,15.31,2.84,23.19,1.35,13.23-2.5,24.23-8.65,32.72-19.2,3.75-4.65,6.7-9.73,8.89-15.26,4.06-10.3,7.43-20.77,7.14-32.03-.37-14.32-5.99-26.15-17.14-35.2-6.66-5.4-14.01-9.77-21.64-13.66-1.81-.93-3.77-1.38-5.79-1.11-12.36,1.68-22.77,7.05-31.03,16.47-6.23,7.1-10.79,15.21-14.49,23.86-4.67,10.92-7.26,22.28-7.44,33.49ZM251.9,350.98c-1.94-.15-3.6-.31-5.26-.4-6.86-.39-13.72-.99-20.58-1.09-13.23-.19-26.29,1.43-39.24,4.17-20.92,4.43-40.55,11.98-58.34,23.96-3.24,2.18-6.46,4.5-9.22,7.23-4.47,4.44-4.24,3.9-1.03,9.19.25.41.54.79.82,1.18,5.82,8.32,13.14,15.05,21.85,20.19,7.3,4.31,15.25,6.88,23.69,7.88,9.08,1.07,18.07.18,26.92-1.68,21.78-4.57,41.81-13.23,59.76-26.49,2.43-1.8,4.72-3.79,7.21-5.79-4.5-12.34-6.63-25.03-6.58-38.36ZM458.33,358.68c.95.24,1.48.4,2.02.5,10.75,2.01,21.46,4.25,32.27,5.95,11.36,1.78,22.79,3.12,34.2,4.51,11.2,1.36,22.44,2.05,33.73,1.76,9.71-.25,19.25-1.6,28.49-4.75,4.24-1.45,8.44-3.05,12.05-5.78,5-3.78,5.09-4.5,2.4-9.97-2.31-4.68-5.55-8.79-9.51-12.24-7.34-6.4-15.53-11.42-24.5-15.27-13.35-5.73-27.11-9.9-41.47-12.17-11.15-1.76-22.33-3.2-33.61-3-7.66.14-15.31.85-22.95,1.45-3.23.25-6.44.89-9.78,1.37,2.12,16.2,1.23,31.96-3.31,47.63ZM440.67,252.58c.6-.21,1.12-.37,1.61-.59,20.42-8.92,40.54-18.44,59.98-29.37,18.44-10.38,36.95-20.64,54.09-33.16,9.43-6.89,18.83-13.78,26.93-22.26.74-.77,1.44-1.58,2.27-2.5-.6-.3-.86-.46-1.15-.57-5.59-2.09-11.38-3.14-17.33-3.26-8.28-.18-16.39,1.19-24.42,3.08-14.99,3.54-29.25,9.11-43,15.96-27.85,13.85-52.99,31.71-76.46,52.02-.33.29-.57.68-.93,1.13,7.85,4.98,13.34,12.01,18.42,19.52ZM311.19,443.65c-5.71-2.86-11.04-5.53-16.67-8.35-.09.13-.28.49-.53.8-7.5,9.35-15.02,18.69-21.6,28.74-9.01,13.77-16.53,28.26-21.08,44.16-2.79,9.74-4.34,19.66-3.57,29.82.23,3.05.58,6.1,1.64,9.22,3.29-2.06,6.01-4.4,8.51-6.97,9.45-9.74,17.52-20.52,24.36-32.24,8.52-14.6,15.42-29.96,21.57-45.67,2.53-6.46,4.91-12.98,7.37-19.51ZM348.03,220.84c.15-.41.27-.63.31-.86,3.8-19.42,7.79-38.81,9.82-58.54,1.05-10.19,1.7-20.38,1.17-30.61-.16-3.14-.63-6.27-1.02-9.97-.77.93-1.24,1.35-1.53,1.86-1.71,3.06-3.64,6.04-5.02,9.25-8.4,19.66-11.19,40.34-10.82,61.55.1,5.83.47,11.65.82,17.47.22,3.57.65,7.12,1.01,10.94,1.96-.41,3.65-.76,5.25-1.09Z"/></svg>