<svg id="visual" viewBox="0 0 900 300" width="900" height="300" xmlns="http://www.w3.org/2000/svg" xmlns:xlink="http://www.w3.org/1999/xlink" version="1.1"><path d="M0 127L15 133.3C30 139.7 60 152.3 90 146.8C120 141.3 150 117.7 180 123.3C210 129 240 164 270 175.5C300 187 330 175 360 157.7C390 140.3 420 117.7 450 110.8C480 104 510 113 540 119.3C570 125.7 600 129.3 630 143.7C660 158 690 183 720 189.3C750 195.7 780 183.3 810 180.2C840 177 870 183 885 186L900 189L900 0L885 0C870 0 840 0 810 0C780 0 750 0 720 0C690 0 660 0 630 0C600 0 570 0 540 0C510 0 480 0 450 0C420 0 390 0 360 0C330 0 300 0 270 0C240 0 210 0 180 0C150 0 120 0 90 0C60 0 30 0 15 0L0 0Z" fill="#0066FF" stroke-linecap="round" stroke-linejoin="miter"></path></svg>