<svg xmlns="http://www.w3.org/2000/svg" viewBox="0 0 721.02 721.02" x="0px" y="0px" fill="#f9a8d4"><defs><style>.cls-1{stroke-width:0px;}</style></defs><path class="cls-1" d="M556.93,289.73c.86,0,1.71-.01,2.56,0,25.21.48,50.03,3.54,74.18,11.1,17.96,5.62,34.12,14.37,47.68,27.61,6.58,6.43,12.13,13.62,15.83,22.08,8.01,18.33,6.76,36.15-3.5,53.24-6.6,11-15.94,19.29-26.95,25.73-11.36,6.65-23.66,10.77-36.52,13.34-13.71,2.74-27.58,3.44-41.52,3.21-.87-.01-1.73,0-3.15,0,.83.88,1.31,1.45,1.84,1.96,9.37,8.95,18.4,18.23,26.73,28.17,12.84,15.32,24.03,31.71,32.42,49.93,5.85,12.7,10.1,25.9,11.98,39.79,2.2,16.25,1.28,32.24-4.63,47.69-7.42,19.38-20.92,32.97-39.82,41.3-10.98,4.84-22.56,6.89-34.5,7.22-19.66.56-38.42-3.48-56.53-10.92-20.53-8.44-38.86-20.42-55.67-34.81-18.99-16.25-35.26-35-50.09-55.05-11.48-15.53-21.68-31.83-30.12-49.22-3.8-7.84-7.75-15.6-11.67-23.38-.64-1.28-1.39-2.52-2.24-3.67-11.07-14.97-3.03-35.79,15.29-39.04,9.78-1.74,17.99,1.71,24.33,9.26,2.03,2.42,3.63,5.27,5.08,8.09,4.63,9.03,9.18,18.11,13.63,27.23,11.91,24.41,27.71,46.13,45.66,66.37,9.2,10.37,19.12,19.99,30.17,28.39,12.6,9.58,26.06,17.66,41.16,22.73,10.33,3.47,20.92,5.19,31.84,4.58,4.74-.27,9.35-1.09,13.76-2.94,7.67-3.22,12.57-8.81,14.66-16.89,1.82-7.02,1.7-14.09.67-21.19-1.52-10.48-5.29-20.22-10.04-29.6-7.68-15.17-17.88-28.56-29.22-41.13-15.97-17.72-34.07-33.03-53.21-47.18-11.89-8.79-23.9-17.42-35.81-26.19-3.21-2.37-6.38-4.84-9.32-7.52-4.88-4.46-7.87-10.02-8.58-16.68-1.35-12.7,7.1-24.42,19.59-27.19,5.29-1.17,10.53-.82,15.63.76,6.94,2.15,13.82,4.52,20.7,6.85,15.86,5.37,32.08,9.3,48.69,11.36,16.79,2.08,33.63,2.5,50.42-.29,7.36-1.22,14.49-3.28,21.17-6.69,3.44-1.75,6.65-3.85,9.3-6.69,1.08-1.16,2.09-2.43,2.94-3.77,1.47-2.34,1.52-4.81.25-7.3-1.33-2.6-3.2-4.77-5.27-6.78-6.17-6-13.42-10.3-21.39-13.41-10.09-3.95-20.62-6.32-31.27-8.08-18.05-2.99-36.27-3.51-54.51-2.91-11.02.36-22.03,1.21-33.04,1.75-6.38.31-12.78.68-19.16.6-7.01-.09-13.34-2.41-18.54-7.3-9.06-8.51-10.67-21.92-3.96-32.68,2.27-3.64,5.18-6.72,8.49-9.39,6.16-4.97,12.38-9.87,18.65-14.69,22.88-17.61,45.3-35.77,66.52-55.37,17.34-16.02,33.89-32.81,48.59-51.34,7.72-9.73,14.67-19.97,20.23-31.1,3.44-6.89,6.34-13.99,7.59-21.64.44-2.66.6-5.41.54-8.11-.05-2.62-.7-3.11-3.31-3.51-5.24-.81-10.36.03-15.42,1.31-10.82,2.74-21.05,7.03-30.96,12.09-17.37,8.87-33.35,19.85-48.57,32.01-26.13,20.88-49.77,44.32-71.54,69.67-11.1,12.93-21.82,26.16-31.43,40.24-3.6,5.27-6.86,10.78-10.01,16.33-4.77,8.39-11.78,13.23-21.44,13.55-16.93.56-29.28-16.1-23.87-32.2,1.29-3.83,3.21-7.5,5.24-11,6.79-11.71,14.79-22.6,23.06-33.29,24.73-31.96,52.08-61.47,82.57-88.01,18.72-16.3,38.39-31.34,59.92-43.81,15.89-9.2,32.39-17.01,50.08-22.13,9.96-2.88,20.07-4.68,30.48-4.4,8.8.23,17.33,1.72,25.3,5.64,16.19,7.97,25.55,21.05,28.52,38.73,1.99,11.82.44,23.43-2.64,34.88-3.66,13.61-9.68,26.2-16.86,38.27-9.89,16.63-21.89,31.68-34.81,46.02-17.15,19.04-35.68,36.66-55.02,53.43-5.44,4.71-10.94,9.35-16.41,14.02-.54.46-1.06.94-1.59,1.41.05.18.1.36.16.54Z"/><path class="cls-1" d="M69.8,408.85c1.53.54,2.7.99,3.9,1.37,7.35,2.35,14.92,3.53,22.56,4.27,16.43,1.59,32.73.28,48.98-2.15,20.67-3.09,40.77-8.65,60.8-14.42,14.12-4.07,28.19-8.29,42.3-12.39,4.73-1.38,9.56-1.93,14.45-.83,9.54,2.15,16.02,7.84,18.86,17.18,2.83,9.35.6,17.76-6.13,24.78-2.12,2.21-4.8,3.96-7.43,5.59-4.28,2.64-8.78,4.93-13.11,7.49-19.96,11.81-38.23,25.9-55.39,41.45-18.73,16.98-35.62,35.58-49.98,56.43-6.91,10.03-13.01,20.52-17.92,31.67-3.39,7.7-6.14,15.62-7.15,24.03-.52,4.38-.77,8.77.26,13.12,1.18,4.97,2.79,6.18,7.91,5.95,5.68-.25,10.98-2.04,16.13-4.27,9.96-4.31,19-10.18,27.64-16.68,12.3-9.25,23.46-19.77,34.31-30.66,15.58-15.64,30.16-32.21,44.96-48.58,10.83-11.98,21.59-24.03,32.35-36.06,1.49-1.67,2.75-3.54,4.25-5.19,6.74-7.44,15.08-10.43,24.87-8.04,9.79,2.39,15.92,8.82,18.34,18.6,1.52,6.15.62,12.13-2.5,17.62-1.61,2.83-3.53,5.55-5.68,7.99-10.68,12.11-21.42,24.18-32.28,36.13-13.87,15.27-27.76,30.52-41.86,45.57-12.14,12.96-24.98,25.22-38.79,36.42-13.2,10.71-27.15,20.26-42.65,27.41-9.77,4.51-19.89,7.85-30.61,9.24-13.97,1.8-27.28-.1-39.52-7.39-12.41-7.4-20.08-18.5-24.35-32.11-3.36-10.7-3.83-21.67-2.7-32.75,1.82-17.84,7.93-34.32,15.89-50.21,9.68-19.33,21.86-37.01,35.66-53.59,6.03-7.24,12.49-14.13,18.76-21.18.42-.47.85-.93,1.59-1.72-.84,0-1.34-.04-1.83,0-5.73.56-11.44,1.23-17.18,1.68-10.7.84-21.4.83-32.1-.01-9.82-.77-19.53-2.13-29.09-4.52-7.7-1.92-15.18-4.41-22.18-8.22-6.97-3.79-13.1-8.6-17.67-15.18-8.16-11.76-9.57-24.62-6-38.24,1.53-5.84,4.08-11.26,7.11-16.46,9.44-16.21,22.11-29.48,37.06-40.67,18.84-14.11,39.64-24.52,61.79-32.27,19.5-6.82,39.51-11.65,59.91-14.92.3-.05.59-.12,1.38-.29-.96-.73-1.62-1.25-2.29-1.74-18.4-13.44-36.58-27.18-53.66-42.3-18.14-16.06-34.77-33.49-48.78-53.32-6.06-8.58-11.33-17.6-15.12-27.43-2.89-7.51-4.84-15.25-5.05-23.32-.59-22.76,8.76-40.15,28.41-51.83,8.79-5.23,18.47-7.87,28.49-9.44,11.47-1.8,22.95-1.34,34.44-.24,30.22,2.89,57.84,13.57,84.15,28.15,34.88,19.34,64.8,44.67,90.35,75.21,10.74,12.84,20.1,26.68,28.32,41.27,3.42,6.07,6.43,12.35,7.79,19.25,2.42,12.35-4.73,24.51-16.62,28.4-11.93,3.9-24.84-1.61-30.26-12.94-.52-1.08-.9-2.22-1.4-3.31-1.3-2.82-2.45-5.74-3.99-8.43-12.01-20.97-27.08-39.51-44.63-56.1-21.57-20.39-45.68-36.96-72.79-49.11-13.19-5.91-26.86-10.25-41.23-12.09-8.73-1.12-17.5-1.88-26.29-.63-2.67.38-5.3,1.13-7.92,1.83-1.14.31-2.21.91-3.28,1.43-2.81,1.36-3.84,3.68-3.56,6.69.31,3.3,1.18,6.48,2.7,9.39,2.14,4.1,4.32,8.21,6.85,12.08,6.47,9.85,14.1,18.79,22.18,27.34,13.71,14.51,28.91,27.33,44.58,39.65,21.14,16.62,43.37,31.67,65.82,46.42,5.01,3.29,9.91,6.74,14.74,10.29,3.63,2.67,6.69,5.95,8.95,9.9,8.61,15.1,1.02,33.48-15.88,38.28-2.75.78-5.64,1.13-8.49,1.43-3.1.32-6.22.44-9.34.46-15.62.1-31.11,1.6-46.55,3.81-17.2,2.47-34.07,6.36-50.59,11.71-19.04,6.17-36.96,14.66-53.08,26.68-8.53,6.36-16,13.74-21.89,22.64-.97,1.46-1.83,2.99-2.98,4.9Z"/></svg>