<?xml version="1.0" standalone="no"?>
<!DOCTYPE svg PUBLIC "-//W3C//DTD SVG 20010904//EN"
 "http://www.w3.org/TR/2001/REC-SVG-20010904/DTD/svg10.dtd">
<svg version="1.0" xmlns="http://www.w3.org/2000/svg"
 width="500.000000pt" height="500.000000pt" viewBox="0 0 500.000000 500.000000"
 preserveAspectRatio="xMidYMid meet">
<metadata>
Created by potrace 1.14, written by Peter Selinger 2001-2017
</metadata>
<g transform="translate(0.000000,500.000000) scale(0.100000,-0.100000)"
fill="#000000" stroke="none">
<path d="M2195 4109 c-250 -30 -441 -134 -505 -274 -63 -141 -23 -363 107
-590 83 -144 207 -320 313 -441 40 -47 46 -48 96 -13 102 70 233 94 354 64 40
-10 75 -14 80 -9 17 19 83 154 130 264 50 120 100 273 121 375 18 84 17 278 0
340 -44 149 -154 243 -330 280 -78 16 -247 18 -366 4z"/>
<path d="M3465 3580 c-198 -40 -456 -277 -698 -640 -42 -64 -77 -120 -77 -126
0 -6 12 -20 27 -30 108 -76 173 -194 188 -340 l7 -62 91 -16 c172 -29 248 -36
420 -36 182 0 288 13 391 49 320 112 376 409 161 846 -142 287 -300 397 -510
355z"/>
<path d="M1076 3176 c-129 -55 -219 -183 -271 -386 -33 -130 -45 -371 -25
-488 16 -95 68 -200 123 -248 75 -65 137 -86 265 -92 126 -5 221 7 351 44 111
32 304 110 431 174 83 42 100 54 95 68 -40 96 -46 216 -16 305 11 32 36 82 57
112 43 65 47 57 -79 162 -170 142 -383 270 -547 330 -83 31 -110 36 -210 40
-105 4 -120 2 -174 -21z"/>
<path d="M2890 2320 c-6 -11 -9 -20 -6 -20 10 0 -20 -67 -54 -121 -39 -63
-126 -137 -194 -165 -25 -11 -46 -24 -46 -31 0 -30 42 -254 66 -345 148 -586
412 -801 765 -623 93 48 171 105 268 199 118 116 173 187 218 284 33 69 37 86
37 162 1 80 -2 91 -37 162 -105 214 -456 397 -979 512 -21 5 -30 1 -38 -14z"/>
<path d="M1955 2122 c-200 -116 -324 -206 -438 -319 -149 -148 -210 -257 -215
-388 -7 -167 76 -296 277 -434 283 -193 550 -250 718 -154 187 108 282 439
254 893 -6 91 -13 186 -17 212 l-7 47 -51 -5 c-108 -11 -249 48 -341 143 -34
34 -66 63 -71 63 -5 0 -54 -26 -109 -58z"/>
</g>
</svg>
